<svg width="1080" height="1080" viewBox="0 0 1080 1080" fill="none" xmlns="http://www.w3.org/2000/svg">
<path fill-rule="evenodd" clip-rule="evenodd" d="M604.851 311.615C555.519 283.367 496.197 272.986 438.827 282.364C381.453 291.743 329.832 320.274 294.651 362.656C262.353 401.564 246.189 449.454 249.03 497.996C213.935 508.524 183.191 529.035 161.747 556.904C137.679 588.182 127.069 626.515 132.311 664.643C137.548 702.739 158.161 737.417 189.701 762.362C221.206 787.279 261.563 800.901 303.162 801H303.197H736.417H736.426C766.107 800.982 795.489 795.363 822.651 784.471C849.815 773.579 874.209 757.634 894.171 737.591C914.138 717.544 929.226 693.84 938.323 667.992C947.422 642.135 950.289 614.8 946.698 587.82C943.108 560.845 933.159 534.953 917.613 511.843C902.072 488.741 881.308 468.965 856.781 453.73C832.256 438.497 804.482 428.12 775.296 423.209C750.587 419.052 725.284 418.883 700.57 422.678C683.924 376.683 650.004 337.469 604.851 311.615ZM670.925 429.075C656.39 391.847 628.11 359.503 589.944 337.649C546.768 312.926 494.446 303.67 443.667 311.971C392.891 320.272 347.952 345.413 317.734 381.817C287.686 418.017 274.363 462.681 279.962 506.86C279.997 507.033 280.044 507.257 280.102 507.527C280.27 508.308 280.528 509.473 280.878 510.94C281.579 513.882 282.636 517.985 284.047 522.583C286.98 532.146 291.018 542.419 295.781 549.2C300.542 555.98 298.906 565.335 292.126 570.096C285.347 574.857 275.991 573.221 271.23 566.442C263.666 555.671 258.527 541.687 255.366 531.381C254.987 530.144 254.63 528.94 254.295 527.778C226.245 536.884 202.208 553.515 185.523 575.199C166.141 600.388 157.93 630.721 162.032 660.557C166.138 690.426 182.391 718.332 208.311 738.832C234.264 759.358 268.004 770.914 303.22 771L303.232 771L736.408 771C762.339 770.984 787.932 766.071 811.486 756.626C835.04 747.182 855.956 733.448 872.915 716.421C889.869 699.398 902.476 679.482 910.024 658.033C917.57 636.592 919.921 614.024 916.96 591.778C913.999 569.529 905.774 547.991 892.721 528.588C879.663 509.177 862.052 492.32 840.952 479.214C819.849 466.106 795.78 457.077 770.318 452.794C744.923 448.521 718.796 449.079 693.672 454.427L641.494 467.085C633.443 469.038 625.334 464.095 623.381 456.045C621.427 447.994 626.37 439.884 634.421 437.931L670.925 429.075Z" fill="url(#paint0_linear_22_54)"/>
<defs>
<linearGradient id="paint0_linear_22_54" x1="131" y1="279" x2="948" y2="801" gradientUnits="userSpaceOnUse">
<stop stop-color="#0468BF"/>
<stop offset="0.275778" stop-color="#0468BF" stop-opacity="0.5"/>
<stop offset="0.290694" stop-color="#65A1D5" stop-opacity="0.710937"/>
<stop offset="0.46875" stop-color="#EBEFF2"/>
<stop offset="0.680282" stop-color="#EFCDA2" stop-opacity="0.731802"/>
<stop offset="0.711709" stop-color="#F2AF5C" stop-opacity="0.5"/>
<stop offset="1" stop-color="#F2AF5C"/>
</linearGradient>
</defs>
</svg>
